<?xml version="1.0" encoding="UTF-8" standalone="no"?>
<!DOCTYPE svg PUBLIC "-//W3C//DTD SVG 1.1//EN" "http://www.w3.org/Graphics/SVG/1.1/DTD/svg11.dtd">
<svg version="1.1" xmlns="http://www.w3.org/2000/svg" xmlns:xlink="http://www.w3.org/1999/xlink" preserveAspectRatio="xMidYMid meet" viewBox="0 0 660 640" width="660" height="640"><defs><path d="M465.46 321.29C465.46 396.67 405.02 457.79 330.46 457.79C255.9 457.79 195.46 396.67 195.46 321.29C195.46 245.9 255.9 184.79 330.46 184.79C405.02 184.79 465.46 245.9 465.46 321.29Z" id="blJ49XcaY"></path><path d="M333.49 77.97C198.46 77.97 88.99 187.44 88.99 322.47C88.99 457.51 198.46 566.97 333.49 566.97C468.53 566.97 577.99 457.51 577.99 322.47C577.99 187.44 468.53 77.97 333.49 77.97Z" id="cxYSHtdVs"></path><path d="M328.96 141.07C229.82 141.07 149.46 221.43 149.46 320.57C149.46 419.7 229.82 500.07 328.96 500.07C428.09 500.07 508.46 419.7 508.46 320.57C508.46 221.43 428.09 141.07 328.96 141.07Z" id="dqGFMKHq"></path><path d="M-8.58 172.64L230.66 221.04L-8.58 172.64Z" id="b11mc0MVLU"></path><path d="M-8.58 345.97L193.94 320.57L-8.58 345.97Z" id="atlsNQPQo"></path><path d="M669.49 172.64L430.26 221.04L669.49 172.64Z" id="b7dZRwqGm"></path><path d="M-8.58 520.47L230.66 419.7L-8.58 520.47Z" id="k246673HDB"></path><path d="M669.49 346.47L470.49 318.54L669.49 346.47Z" id="cwTXoGTv"></path><path d="M669.49 520.47L430.26 423.34L669.49 520.47Z" id="b7febYSiB"></path><path d="M248.48 223.29C248.48 230.3 242.79 235.99 235.78 235.99C228.78 235.99 223.08 230.3 223.08 223.29C223.08 216.28 228.78 210.59 235.78 210.59C242.79 210.59 248.48 216.28 248.48 223.29Z" id="b1HCFLvZT6"></path><path d="M242.31 223.29C242.31 226.89 239.39 229.82 235.78 229.82C232.18 229.82 229.26 226.89 229.26 223.29C229.26 219.68 232.18 216.76 235.78 216.76C239.39 216.76 242.31 219.68 242.31 223.29Z" id="m4Niso6qGl"></path><path d="M239.32 223.29C239.32 225.24 237.74 226.82 235.78 226.82C233.83 226.82 232.25 225.24 232.25 223.29C232.25 221.34 233.83 219.75 235.78 219.75C237.74 219.75 239.32 221.34 239.32 223.29Z" id="a8xxdUNZM1"></path><path d="M208.16 320C208.16 327.01 202.47 332.7 195.46 332.7C188.45 332.7 182.76 327.01 182.76 320C182.76 312.99 188.45 307.3 195.46 307.3C202.47 307.3 208.16 312.99 208.16 320Z" id="b1rmd6IZUx"></path><path d="M201.98 320C201.98 323.6 199.06 326.53 195.46 326.53C191.85 326.53 188.93 323.6 188.93 320C188.93 316.4 191.85 313.47 195.46 313.47C199.06 313.47 201.98 316.4 201.98 320Z" id="c4sKtoNXLF"></path><path d="M198.99 320C198.99 321.95 197.41 323.54 195.46 323.54C193.51 323.54 191.92 321.95 191.92 320C191.92 318.05 193.51 316.46 195.46 316.46C197.41 316.46 198.99 318.05 198.99 320Z" id="b60zYS2qd"></path><path d="M249.06 419.7C249.06 426.71 243.37 432.4 236.36 432.4C229.35 432.4 223.66 426.71 223.66 419.7C223.66 412.69 229.35 407 236.36 407C243.37 407 249.06 412.69 249.06 419.7Z" id="a5RPjCRdI9"></path><path d="M242.88 419.7C242.88 423.3 239.96 426.23 236.36 426.23C232.75 426.23 229.83 423.3 229.83 419.7C229.83 416.1 232.75 413.17 236.36 413.17C239.96 413.17 242.88 416.1 242.88 419.7Z" id="h5zkC4YGK"></path><path d="M239.89 419.7C239.89 421.65 238.31 423.24 236.36 423.24C234.41 423.24 232.82 421.65 232.82 419.7C232.82 417.75 234.41 416.16 236.36 416.16C238.31 416.16 239.89 417.75 239.89 419.7Z" id="eVI1Vk8l8"></path><path d="M436.88 419.7C436.88 426.71 431.19 432.4 424.18 432.4C417.18 432.4 411.48 426.71 411.48 419.7C411.48 412.69 417.18 407 424.18 407C431.19 407 436.88 412.69 436.88 419.7Z" id="cXmUsqBXf"></path><path d="M430.71 419.7C430.71 423.3 427.79 426.23 424.18 426.23C420.58 426.23 417.66 423.3 417.66 419.7C417.66 416.1 420.58 413.17 424.18 413.17C427.79 413.17 430.71 416.1 430.71 419.7Z" id="aovluylpV"></path><path d="M427.72 419.7C427.72 421.65 426.14 423.24 424.18 423.24C422.23 423.24 420.65 421.65 420.65 419.7C420.65 417.75 422.23 416.16 424.18 416.16C426.14 416.16 427.72 417.75 427.72 419.7Z" id="bIaV181PG"></path><path d="M478.16 317.75C478.16 324.76 472.47 330.45 465.46 330.45C458.45 330.45 452.76 324.76 452.76 317.75C452.76 310.74 458.45 305.05 465.46 305.05C472.47 305.05 478.16 310.74 478.16 317.75Z" id="a2h0wdL0H0"></path><path d="M471.98 317.75C471.98 321.36 469.06 324.28 465.46 324.28C461.85 324.28 458.93 321.36 458.93 317.75C458.93 314.15 461.85 311.22 465.46 311.22C469.06 311.22 471.98 314.15 471.98 317.75Z" id="j4gRjAV438"></path><path d="M468.99 317.75C468.99 319.7 467.41 321.29 465.46 321.29C463.51 321.29 461.92 319.7 461.92 317.75C461.92 315.8 463.51 314.22 465.46 314.22C467.41 314.22 468.99 315.8 468.99 317.75Z" id="a9W93V0W6"></path><path d="M437.91 223.29C437.91 230.3 432.22 235.99 425.21 235.99C418.2 235.99 412.51 230.3 412.51 223.29C412.51 216.28 418.2 210.59 425.21 210.59C432.22 210.59 437.91 216.28 437.91 223.29Z" id="a23QAjSabT"></path><path d="M431.74 223.29C431.74 226.89 428.82 229.82 425.21 229.82C421.61 229.82 418.68 226.89 418.68 223.29C418.68 219.68 421.61 216.76 425.21 216.76C428.82 216.76 431.74 219.68 431.74 223.29Z" id="b7Vqh2WTel"></path><path d="M428.75 223.29C428.75 225.24 427.16 226.82 425.21 226.82C423.26 226.82 421.68 225.24 421.68 223.29C421.68 221.34 423.26 219.75 425.21 219.75C427.16 219.75 428.75 221.34 428.75 223.29Z" id="e4vIGyyK6"></path></defs><g><g><g><use xlink:href="#blJ49XcaY" opacity="0.1" fill="#0a205a" fill-opacity="0.99"></use><g><use xlink:href="#blJ49XcaY" opacity="0.1" fill-opacity="0" stroke="#6f7ee0" stroke-width="3" stroke-opacity="1"></use></g></g><g><use xlink:href="#cxYSHtdVs" opacity="0.4" fill="#1e5af6" fill-opacity="0.1"></use></g><g><use xlink:href="#dqGFMKHq" opacity="0.4" fill="#453dfb" fill-opacity="0.1"></use></g><g><g><use xlink:href="#b11mc0MVLU" opacity="0.3" fill-opacity="0" stroke="#7a77e1" stroke-width="1" stroke-opacity="1"></use></g></g><g><g><use xlink:href="#atlsNQPQo" opacity="0.3" fill-opacity="0" stroke="#7a77e1" stroke-width="1" stroke-opacity="1"></use></g></g><g><g><use xlink:href="#b7dZRwqGm" opacity="0.3" fill-opacity="0" stroke="#7a77e1" stroke-width="1" stroke-opacity="1"></use></g></g><g><g><use xlink:href="#k246673HDB" opacity="0.3" fill-opacity="0" stroke="#7a77e1" stroke-width="1" stroke-opacity="1"></use></g></g><g><g><use xlink:href="#cwTXoGTv" opacity="0.3" fill-opacity="0" stroke="#7a77e1" stroke-width="1" stroke-opacity="1"></use></g></g><g><g><use xlink:href="#b7febYSiB" opacity="0.3" fill-opacity="0" stroke="#7a77e1" stroke-width="1" stroke-opacity="1"></use></g></g><g><use xlink:href="#b1HCFLvZT6" opacity="0.75" fill="#ffffff" fill-opacity="0.4"></use></g><g><use xlink:href="#m4Niso6qGl" opacity="0.75" fill="#ffffff" fill-opacity="0.5"></use></g><g><use xlink:href="#a8xxdUNZM1" opacity="0.75" fill="#ffffff" fill-opacity="0.7"></use></g><g><use xlink:href="#b1rmd6IZUx" opacity="0.75" fill="#ffffff" fill-opacity="0.4"></use></g><g><use xlink:href="#c4sKtoNXLF" opacity="0.75" fill="#ffffff" fill-opacity="0.5"></use></g><g><use xlink:href="#b60zYS2qd" opacity="0.75" fill="#ffffff" fill-opacity="0.7"></use></g><g><use xlink:href="#a5RPjCRdI9" opacity="0.75" fill="#ffffff" fill-opacity="0.4"></use></g><g><use xlink:href="#h5zkC4YGK" opacity="0.75" fill="#ffffff" fill-opacity="0.5"></use></g><g><use xlink:href="#eVI1Vk8l8" opacity="0.75" fill="#ffffff" fill-opacity="0.7"></use></g><g><use xlink:href="#cXmUsqBXf" opacity="0.75" fill="#ffffff" fill-opacity="0.4"></use></g><g><use xlink:href="#aovluylpV" opacity="0.75" fill="#ffffff" fill-opacity="0.5"></use></g><g><use xlink:href="#bIaV181PG" opacity="0.75" fill="#ffffff" fill-opacity="0.7"></use></g><g><use xlink:href="#a2h0wdL0H0" opacity="0.75" fill="#ffffff" fill-opacity="0.4"></use></g><g><use xlink:href="#j4gRjAV438" opacity="0.75" fill="#ffffff" fill-opacity="0.5"></use></g><g><use xlink:href="#a9W93V0W6" opacity="0.75" fill="#ffffff" fill-opacity="0.7"></use></g><g><use xlink:href="#a23QAjSabT" opacity="0.75" fill="#ffffff" fill-opacity="0.4"></use></g><g><use xlink:href="#b7Vqh2WTel" opacity="0.75" fill="#ffffff" fill-opacity="0.5"></use></g><g><use xlink:href="#e4vIGyyK6" opacity="0.75" fill="#ffffff" fill-opacity="0.7"></use></g></g></g></svg>